<!DOCTYPE svg PUBLIC "-//W3C//DTD SVG 20010904//EN" "http://www.w3.org/TR/2001/REC-SVG-20010904/DTD/svg10.dtd">
<svg version="1.0" xmlns="http://www.w3.org/2000/svg" width="192px" height="65px" viewBox="0 0 1920 650" preserveAspectRatio="xMidYMid meet">
<g id="layer101" fill="#000000" stroke="none">
 <path d="M950 629 c0 -6 -11 -20 -25 -31 -32 -25 -32 -47 3 -75 l27 -23 -27 -21 c-16 -11 -28 -27 -28 -35 0 -8 -7 -17 -15 -21 -37 -14 -56 -93 -35 -147 19 -50 97 -71 150 -39 81 48 58 181 -36 199 l-34 6 25 20 c33 26 33 63 -1 84 -24 16 -24 18 -7 27 34 19 47 67 18 67 -8 0 -15 -5 -15 -11z m8 -271 c17 -17 15 -55 -4 -62 -23 -9 -34 2 -34 33 0 40 15 52 38 29z"/>
 <path d="M1110 623 c0 -23 10 -37 33 -50 17 -9 17 -11 -7 -27 -35 -22 -36 -67 -1 -86 l25 -13 -39 -18 c-48 -21 -61 -44 -61 -104 0 -94 98 -139 169 -79 28 23 31 31 31 83 0 47 -4 61 -23 79 -13 12 -29 22 -35 22 -7 0 -12 6 -12 14 0 8 -12 24 -27 35 l-28 21 28 23 c34 28 34 52 2 73 -14 9 -25 23 -25 30 0 8 -7 14 -15 14 -8 0 -15 -8 -15 -17z m74 -276 c8 -12 8 -22 0 -34 -16 -25 -38 -22 -42 5 -7 50 18 67 42 29z"/>
 <path d="M287 434 c-4 -4 -26 -7 -49 -8 l-43 -1 0 -160 0 -160 35 0 35 0 5 70 c3 41 8 65 13 58 16 -25 64 -15 92 19 24 28 27 38 23 87 -4 44 -10 59 -32 78 -26 22 -65 30 -79 17z m28 -105 c0 -27 -4 -34 -20 -34 -24 0 -35 53 -13 66 22 14 33 4 33 -32z"/>
 <path d="M428 427 c-11 -9 -18 -28 -18 -50 0 -43 28 -67 78 -67 23 0 32 -4 29 -12 -2 -7 -14 -12 -26 -10 -68 7 -66 8 -69 -20 -3 -22 2 -30 23 -38 57 -22 123 -6 144 34 7 12 11 51 9 91 l-3 70 -45 2 c-25 1 -58 5 -75 8 -18 3 -37 0 -47 -8z m92 -68 c0 -5 -7 -9 -15 -9 -8 0 -15 7 -15 15 0 9 6 12 15 9 8 -4 15 -10 15 -15z"/>
 <path d="M1538 429 c-20 -7 -28 -18 -28 -34 0 -32 15 -39 51 -25 20 9 33 10 40 3 7 -7 0 -12 -22 -17 -102 -20 -88 -136 16 -136 49 0 79 19 73 46 -3 16 -11 19 -47 16 -27 -2 -40 1 -36 8 3 5 14 10 24 10 28 0 71 39 71 65 0 55 -76 90 -142 64z"/>
 <path d="M635 418 c-3 -8 -4 -81 -3 -163 l3 -150 32 -3 c42 -4 45 6 41 183 l-3 140 -33 3 c-20 2 -34 -2 -37 -10z"/>
 <path d="M745 418 c-3 -8 -4 -81 -3 -163 l3 -150 35 0 35 0 0 160 0 160 -33 3 c-20 2 -34 -2 -37 -10z"/>
 <path d="M1287 423 c-4 -3 -7 -46 -7 -93 0 -102 11 -121 61 -103 17 7 31 7 35 2 13 -21 62 -9 89 22 23 29 26 38 23 103 l-3 71 -35 0 -35 0 -5 -65 c-4 -57 -8 -65 -25 -65 -18 0 -20 8 -23 68 l-3 67 -33 0 c-18 0 -36 -3 -39 -7z"/>
 </g>
<g id="layer102" fill="#ff0c47" stroke="none">
 <path d="M903 429 c-77 -23 -86 -156 -14 -194 56 -29 127 -9 150 42 42 93 -37 182 -136 152z m55 -71 c17 -17 15 -55 -4 -62 -23 -9 -34 2 -34 33 0 40 15 52 38 29z"/>
 <path d="M1108 424 c-36 -19 -48 -43 -48 -99 0 -94 98 -139 169 -79 28 23 31 31 31 83 0 47 -4 61 -23 79 -29 28 -93 36 -129 16z m76 -77 c8 -12 8 -22 0 -34 -16 -25 -38 -22 -42 5 -7 50 18 67 42 29z"/>
 </g>

</svg>